<?xml version="1.0" encoding="UTF-8" standalone="no"?>
<!DOCTYPE svg PUBLIC "-//W3C//DTD SVG 20010904//EN" "http://www.w3.org/TR/2001/REC-SVG-20010904/DTD/svg10.dtd">
<svg version="1.0" xmlns="http://www.w3.org/2000/svg" width="150.000000pt" height="150.000000pt" viewBox="0 0 150.000000 150.000000" preserveAspectRatio="xMidYMid meet">
<metadata>
Created by potrace 1.10, written by Peter Selinger 2001-2011
</metadata>
<g transform="translate(0.000000,150.000000) scale(0.100000,-0.100000)" fill="#3b3b3b" stroke="none">
<path d="M186 1485 c-3 -9 -20 -22 -38 -30 -49 -21 -93 -64 -122 -119 l-26 -49 0 -548 0 -547 26 -51 c29 -56 96 -121 125 -121 10 0 21 -4 24 -10 4 -6 110 -10 286 -10 l279 0 0 253 c0 138 -3 262 -6 275 -6 21 -12 22 -89 22 -66 0 -84 3 -89 16 -8 20 -8 208 0 228 5 13 23 16 89 16 96 0 95 -2 95 113 0 37 4 75 10 85 5 9 16 33 25 53 21 47 86 114 138 141 37 20 57 22 177 23 l135 0 3 -119 c2 -78 -1 -123 -9 -132 -8 -10 -37 -14 -103 -14 -58 0 -99 -5 -109 -13 -20 -14 -32 -74 -23 -111 6 -25 7 -25 124 -28 l117 -3 0 -125 0 -125 -116 -3 c-111 -2 -117 -4 -123 -25 -3 -12 -6 -136 -6 -274 l0 -253 158 0 c137 0 164 3 199 20 51 24 102 74 120 117 7 18 20 33 28 33 13 0 15 71 15 563 0 551 0 562 -20 575 -11 7 -20 18 -20 26 0 24 -70 94 -116 116 -24 12 -44 28 -44 36 0 12 -84 14 -554 14 -490 0 -555 -2 -560 -15z"/>
</g>
</svg>