<?xml version="1.0" encoding="UTF-8" standalone="no"?>
<!DOCTYPE svg PUBLIC "-//W3C//DTD SVG 20010904//EN" "http://www.w3.org/TR/2001/REC-SVG-20010904/DTD/svg10.dtd">
<svg version="1.0" xmlns="http://www.w3.org/2000/svg" width="50.000000pt" height="50.000000pt" viewBox="0 0 50.000000 50.000000" preserveAspectRatio="xMidYMid meet">
<metadata>
Created by potrace 1.10, written by Peter Selinger 2001-2011
</metadata>
<g transform="translate(0.000000,50.000000) scale(0.100000,-0.100000)" fill="#3d3d3d" stroke="none">
<path d="M83 470 c-39 -24 -53 -48 -53 -95 0 -63 33 -104 83 -105 16 0 27 -5 27 -14 0 -8 3 -21 6 -29 4 -11 -6 -16 -41 -21 -75 -12 -101 -46 -97 -129 3 -46 52 -69 139 -65 59 3 76 7 97 27 56 53 51 125 -13 185 -17 17 -31 34 -31 40 0 5 12 23 28 39 23 24 27 37 27 84 0 42 -4 59 -17 67 -15 9 -13 12 20 22 34 11 31 12 -53 13 -73 1 -96 -3 -122 -19z m87 -20 c30 -16 42 -76 25 -117 -12 -29 -19 -34 -41 -31 -35 4 -68 49 -68 92 0 57 37 81 84 56z m53 -254 c21 -17 20 -17 -13 1 -19 11 -36 28 -38 39 -3 18 -2 18 13 -1 9 -11 26 -28 38 -39z m-5 -42 c41 -47 2 -104 -72 -104 -53 0 -86 22 -86 59 0 72 106 103 158 45z m-173 -83 c14 -23 -4 -10 -19 14 -9 14 -14 31 -10 37 5 8 10 3 15 -14 4 -15 10 -31 14 -37z"/>
<path d="M362 345 l6 -45 -44 0 c-40 0 -44 -2 -44 -25 0 -23 4 -25 45 -25 44 0 44 0 39 -30 -9 -43 0 -58 30 -53 23 5 26 10 26 44 0 39 0 39 40 39 36 0 40 3 40 25 0 23 -4 25 -40 25 l-40 0 0 45 c0 44 -1 45 -31 45 -31 0 -32 0 -27 -45z m47 -59 c9 -10 8 -16 -4 -26 -21 -17 -51 6 -34 26 6 8 15 14 19 14 4 0 13 -6 19 -14z"/>
</g>
</svg>